M48
; DRILL file {KiCad 8.0.9-8.0.9-0~ubuntu22.04.1} date 2025-05-21T15:53:45+0200
; FORMAT={-:-/ absolute / metric / decimal}
; #@! TF.CreationDate,2025-05-21T15:53:45+02:00
; #@! TF.GenerationSoftware,Kicad,Pcbnew,8.0.9-8.0.9-0~ubuntu22.04.1
; #@! TF.FileFunction,Plated,1,4,PTH
FMAT,2
METRIC
; #@! TA.AperFunction,Plated,PTH,ViaDrill
T1C0.300
; #@! TA.AperFunction,Plated,PTH,ViaDrill
T2C0.500
; #@! TA.AperFunction,Plated,PTH,ComponentDrill
T3C0.500
; #@! TA.AperFunction,Plated,PTH,ViaDrill
T4C0.800
; #@! TA.AperFunction,Plated,PTH,ComponentDrill
T5C1.000
; #@! TA.AperFunction,Plated,PTH,ComponentDrill
T6C1.020
; #@! TA.AperFunction,Plated,PTH,ComponentDrill
T7C1.900
; #@! TA.AperFunction,Plated,PTH,ComponentDrill
T8C3.200
%
G90
G05
T1
X181.015Y-24.015
X181.015Y-26.555
X181.015Y-29.095
X181.015Y-31.635
X181.015Y-34.175
X181.015Y-36.715
X181.015Y-39.255
X181.015Y-41.795
X181.015Y-44.335
X181.015Y-46.875
X181.015Y-49.415
X181.015Y-90.055
X181.015Y-92.595
X181.015Y-105.295
X181.015Y-107.835
X181.015Y-110.375
X181.015Y-112.915
X181.015Y-115.455
X181.015Y-117.995
X183.555Y-24.015
X183.555Y-51.955
X183.555Y-54.495
X183.555Y-57.035
X183.555Y-92.595
X183.555Y-95.135
X183.555Y-105.295
X183.555Y-107.835
X183.555Y-110.375
X183.555Y-112.915
X183.555Y-115.455
X183.555Y-117.995
X186.095Y-24.015
X186.095Y-29.095
X186.095Y-34.175
X186.095Y-46.875
X186.095Y-51.955
X186.095Y-54.495
X186.095Y-62.115
X186.095Y-64.655
X186.095Y-74.815
X186.095Y-77.355
X186.095Y-82.435
X186.095Y-92.595
X186.095Y-102.755
X186.095Y-105.295
X186.095Y-107.835
X186.095Y-110.375
X186.095Y-112.915
X186.095Y-115.455
X188.635Y-24.015
X188.635Y-29.095
X188.635Y-34.175
X188.635Y-46.875
X188.635Y-51.955
X188.635Y-54.495
X188.635Y-74.815
X188.635Y-77.355
X188.635Y-82.435
X188.635Y-92.595
X188.635Y-102.755
X188.635Y-110.375
X188.635Y-112.915
X188.635Y-115.455
X188.635Y-117.995
X191.175Y-24.015
X191.175Y-29.095
X191.175Y-34.175
X191.175Y-39.255
X191.175Y-41.795
X191.175Y-46.875
X191.175Y-51.955
X191.175Y-74.815
X191.175Y-77.355
X191.175Y-92.595
X191.175Y-110.375
X191.175Y-112.915
X191.175Y-115.455
X191.175Y-117.995
X193.715Y-24.015
X193.715Y-29.095
X193.715Y-34.175
X193.715Y-39.255
X193.715Y-41.795
X193.715Y-46.875
X193.715Y-57.035
X193.715Y-62.115
X193.715Y-64.655
X193.715Y-69.735
X193.715Y-110.375
X193.715Y-112.915
X193.715Y-115.455
X193.715Y-117.995
X196.255Y-24.015
X196.255Y-26.555
X196.255Y-34.175
X196.255Y-39.255
X196.255Y-41.795
X196.255Y-46.875
X196.255Y-54.495
X196.255Y-57.035
X196.255Y-62.115
X196.255Y-64.655
X196.255Y-69.735
X196.255Y-92.595
X196.255Y-110.375
X196.255Y-112.915
X196.255Y-115.455
X196.255Y-117.995
X198.795Y-24.015
X198.795Y-26.555
X198.795Y-29.095
X198.795Y-41.795
X198.795Y-51.955
X198.795Y-54.495
X198.795Y-57.035
X198.795Y-62.115
X198.795Y-82.435
X198.795Y-92.595
X198.795Y-102.755
X198.795Y-105.295
X198.795Y-107.835
X198.795Y-110.375
X198.795Y-112.915
X198.795Y-115.455
X201.335Y-24.015
X201.335Y-31.635
X201.335Y-51.955
X201.335Y-54.495
X201.335Y-57.035
X201.335Y-87.515
X203.875Y-31.635
X203.875Y-34.175
X203.875Y-51.955
X203.875Y-54.495
X203.875Y-57.035
X203.875Y-67.195
X203.875Y-84.975
X203.875Y-87.515
X203.875Y-95.135
X203.875Y-97.675
X203.875Y-100.215
X203.875Y-107.835
X203.875Y-110.375
X203.875Y-112.915
X206.0Y-74.95
X206.415Y-31.635
X206.415Y-34.175
X206.415Y-54.495
X206.415Y-57.035
X206.415Y-62.115
X206.415Y-69.735
X206.415Y-82.435
X206.415Y-84.975
X206.415Y-92.595
X206.415Y-95.135
X206.415Y-97.675
X206.415Y-100.215
X206.415Y-102.755
X206.5Y-73.5
X208.0Y-77.5
X208.955Y-24.015
X208.955Y-26.555
X208.955Y-29.095
X208.955Y-31.635
X208.955Y-57.035
X208.955Y-62.115
X208.955Y-69.735
X208.955Y-79.895
X208.955Y-90.055
X208.955Y-92.595
X208.955Y-95.135
X208.955Y-97.675
X208.955Y-100.215
X208.955Y-102.755
X208.955Y-117.995
X211.495Y-24.015
X211.495Y-26.555
X211.495Y-29.095
X211.495Y-31.635
X211.495Y-90.055
X211.495Y-92.595
X211.495Y-95.135
X211.495Y-97.675
X211.495Y-100.215
X211.495Y-107.835
X212.512Y-111.106
X212.582Y-113.901
X214.035Y-24.015
X214.035Y-26.555
X214.035Y-29.095
X214.035Y-31.635
X214.035Y-87.515
X214.035Y-90.055
X214.035Y-92.595
X214.035Y-95.135
X214.035Y-97.675
X214.035Y-117.995
X216.575Y-24.015
X216.575Y-26.555
X216.575Y-29.095
X216.575Y-31.635
X216.575Y-90.055
X216.575Y-92.595
X216.575Y-95.135
X216.575Y-97.675
X216.575Y-102.755
X216.575Y-105.295
X216.575Y-107.835
X216.575Y-117.995
X218.082Y-113.901
X218.512Y-111.106
X219.115Y-24.015
X219.115Y-26.555
X219.115Y-29.095
X219.115Y-31.635
X219.115Y-34.175
X219.115Y-36.715
X219.115Y-39.255
X219.115Y-41.795
X219.115Y-44.335
X219.115Y-46.875
X219.115Y-49.415
X219.115Y-51.955
X219.115Y-54.495
X219.115Y-57.035
X219.115Y-59.575
X219.115Y-62.115
X219.115Y-64.655
X219.115Y-67.195
X219.115Y-69.735
X219.115Y-72.275
X219.115Y-74.815
X219.115Y-77.355
X219.115Y-79.895
X219.115Y-82.435
X219.115Y-84.975
X219.115Y-92.595
X219.115Y-95.135
X219.115Y-97.675
X219.115Y-102.755
X219.115Y-105.295
X219.115Y-107.835
X221.655Y-24.015
X221.655Y-26.555
X221.655Y-29.095
X221.655Y-31.635
X221.655Y-34.175
X221.655Y-36.715
X221.655Y-39.255
X221.655Y-41.795
X221.655Y-44.335
X221.655Y-46.875
X221.655Y-49.415
X221.655Y-51.955
X221.655Y-54.495
X221.655Y-57.035
X221.655Y-59.575
X221.655Y-62.115
X221.655Y-64.655
X221.655Y-67.195
X221.655Y-69.735
X221.655Y-72.275
X221.655Y-74.815
X221.655Y-77.355
X221.655Y-79.895
X221.655Y-82.435
X221.655Y-84.975
X221.655Y-87.515
X221.655Y-95.135
X221.655Y-97.675
X221.655Y-102.755
X221.655Y-105.295
X221.655Y-107.835
X221.655Y-110.375
X221.655Y-112.915
X221.655Y-115.455
X221.655Y-117.995
X224.195Y-24.015
X224.195Y-26.555
X224.195Y-29.095
X224.195Y-31.635
X224.195Y-34.175
X224.195Y-36.715
X224.195Y-39.255
X224.195Y-41.795
X224.195Y-44.335
X224.195Y-46.875
X224.195Y-49.415
X224.195Y-51.955
X224.195Y-54.495
X224.195Y-57.035
X224.195Y-59.575
X224.195Y-62.115
X224.195Y-64.655
X224.195Y-67.195
X224.195Y-69.735
X224.195Y-72.275
X224.195Y-74.815
X224.195Y-77.355
X224.195Y-79.895
X224.195Y-82.435
X224.195Y-84.975
X224.195Y-87.515
X224.195Y-95.135
X224.195Y-97.675
X224.195Y-102.755
X224.195Y-105.295
X224.195Y-107.835
X224.195Y-110.375
X224.195Y-112.915
X224.195Y-117.995
X226.735Y-24.015
X226.735Y-26.555
X226.735Y-29.095
X226.735Y-31.635
X226.735Y-34.175
X226.735Y-36.715
X226.735Y-39.255
X226.735Y-41.795
X226.735Y-44.335
X226.735Y-46.875
X226.735Y-49.415
X226.735Y-51.955
X226.735Y-54.495
X226.735Y-57.035
X226.735Y-59.575
X226.735Y-62.115
X226.735Y-64.655
X226.735Y-67.195
X226.735Y-69.735
X226.735Y-72.275
X226.735Y-74.815
X226.735Y-77.355
X226.735Y-79.895
X226.735Y-82.435
X226.735Y-84.975
X226.735Y-87.515
X226.735Y-95.135
X226.735Y-97.675
X226.735Y-102.755
X226.735Y-110.375
X226.735Y-112.915
X226.735Y-117.995
X229.275Y-24.015
X229.275Y-26.555
X229.275Y-29.095
X229.275Y-31.635
X229.275Y-34.175
X229.275Y-36.715
X229.275Y-39.255
X229.275Y-41.795
X229.275Y-44.335
X229.275Y-46.875
X229.275Y-49.415
X229.275Y-51.955
X229.275Y-54.495
X229.275Y-57.035
X229.275Y-59.575
X229.275Y-62.115
X229.275Y-64.655
X229.275Y-67.195
X229.275Y-69.735
X229.275Y-72.275
X229.275Y-74.815
X229.275Y-77.355
X229.275Y-79.895
X229.275Y-82.435
X229.275Y-84.975
X229.275Y-87.515
X229.275Y-95.135
X229.275Y-97.675
X229.275Y-110.375
X229.275Y-112.915
X229.275Y-115.455
X231.815Y-24.015
X231.815Y-26.555
X231.815Y-29.095
X231.815Y-31.635
X231.815Y-34.175
X231.815Y-36.715
X231.815Y-39.255
X231.815Y-41.795
X231.815Y-44.335
X231.815Y-46.875
X231.815Y-49.415
X231.815Y-51.955
X231.815Y-54.495
X231.815Y-57.035
X231.815Y-59.575
X231.815Y-62.115
X231.815Y-64.655
X231.815Y-67.195
X231.815Y-69.735
X231.815Y-72.275
X231.815Y-74.815
X231.815Y-77.355
X231.815Y-79.895
X231.815Y-82.435
X231.815Y-84.975
X231.815Y-87.515
X231.815Y-95.135
X231.815Y-97.675
X231.815Y-110.375
X231.815Y-112.915
X234.355Y-24.015
X234.355Y-26.555
X234.355Y-29.095
X234.355Y-31.635
X234.355Y-34.175
X234.355Y-36.715
X234.355Y-39.255
X234.355Y-41.795
X234.355Y-44.335
X234.355Y-46.875
X234.355Y-49.415
X234.355Y-51.955
X234.355Y-54.495
X234.355Y-57.035
X234.355Y-59.575
X234.355Y-62.115
X234.355Y-64.655
X234.355Y-67.195
X234.355Y-69.735
X234.355Y-72.275
X234.355Y-74.815
X234.355Y-77.355
X234.355Y-79.895
X234.355Y-82.435
X234.355Y-84.975
X234.355Y-87.515
X234.355Y-95.135
X234.355Y-97.675
X234.355Y-107.835
X234.355Y-110.375
X234.355Y-112.915
X236.895Y-24.015
X236.895Y-26.555
X236.895Y-29.095
X236.895Y-31.635
X236.895Y-34.175
X236.895Y-36.715
X236.895Y-39.255
X236.895Y-41.795
X236.895Y-44.335
X236.895Y-46.875
X236.895Y-49.415
X236.895Y-51.955
X236.895Y-54.495
X236.895Y-57.035
X236.895Y-59.575
X236.895Y-62.115
X236.895Y-64.655
X236.895Y-67.195
X236.895Y-69.735
X236.895Y-72.275
X236.895Y-74.815
X236.895Y-77.355
X236.895Y-79.895
X236.895Y-82.435
X236.895Y-84.975
X236.895Y-87.515
X236.895Y-95.135
X236.895Y-97.675
X236.895Y-100.215
X236.895Y-110.375
X236.895Y-112.915
X239.435Y-24.015
X239.435Y-26.555
X239.435Y-29.095
X239.435Y-31.635
X239.435Y-95.135
X239.435Y-112.915
X241.975Y-24.015
X241.975Y-26.555
X241.975Y-29.095
X241.975Y-31.635
X241.975Y-95.135
X241.975Y-112.915
X244.515Y-24.015
X244.515Y-26.555
X244.515Y-29.095
X244.515Y-31.635
X244.515Y-95.135
X244.515Y-97.675
X244.515Y-100.215
X244.515Y-112.915
X246.95Y-110.8
X247.055Y-24.015
X247.055Y-26.555
X247.055Y-29.095
X247.055Y-31.635
X247.055Y-34.175
X247.055Y-36.715
X247.055Y-39.255
X247.055Y-46.875
X247.055Y-49.415
X247.055Y-51.955
X247.055Y-54.495
X247.055Y-57.035
X247.055Y-59.575
X247.055Y-62.115
X247.055Y-95.135
X247.055Y-97.675
X247.055Y-100.215
X249.137Y-111.75
X249.595Y-24.015
X249.595Y-26.555
X249.595Y-29.095
X249.595Y-31.635
X249.595Y-34.175
X249.595Y-36.715
X249.595Y-39.255
X249.595Y-46.875
X249.595Y-49.415
X249.595Y-51.955
X249.595Y-54.495
X249.595Y-57.035
X249.595Y-59.575
X249.595Y-92.595
X249.595Y-95.135
X249.595Y-97.675
X249.595Y-100.215
X249.595Y-105.295
X252.135Y-24.015
X252.135Y-26.555
X252.135Y-29.095
X252.135Y-31.635
X252.135Y-34.175
X252.135Y-36.715
X252.135Y-39.255
X252.135Y-46.875
X252.135Y-49.415
X252.135Y-51.955
X252.135Y-54.495
X252.135Y-57.035
X252.135Y-64.655
X252.135Y-67.195
X252.135Y-69.735
X252.135Y-72.275
X252.135Y-74.815
X252.135Y-79.895
X252.135Y-82.435
X252.135Y-84.975
X252.135Y-95.135
X252.135Y-97.675
X252.135Y-105.295
X254.675Y-31.635
X254.675Y-34.175
X254.675Y-36.715
X254.675Y-39.255
X254.675Y-46.875
X254.675Y-49.415
X254.675Y-51.955
X254.675Y-54.495
X254.675Y-62.115
X254.675Y-64.655
X254.675Y-67.195
X254.675Y-69.735
X254.675Y-72.275
X254.675Y-74.815
X254.675Y-79.895
X254.675Y-82.435
X254.675Y-84.975
X254.675Y-95.135
X254.675Y-105.295
X254.675Y-110.375
X257.215Y-31.635
X257.215Y-34.175
X257.215Y-36.715
X257.215Y-39.255
X257.215Y-46.875
X257.215Y-49.415
X257.215Y-51.955
X257.215Y-59.575
X257.215Y-62.115
X257.215Y-64.655
X257.215Y-67.195
X257.215Y-69.735
X257.215Y-72.275
X257.215Y-74.815
X257.215Y-77.355
X257.215Y-79.895
X257.215Y-84.975
X257.215Y-105.295
X259.755Y-24.015
X259.755Y-31.635
X259.755Y-34.175
X259.755Y-36.715
X259.755Y-39.255
X259.755Y-46.875
X259.755Y-49.415
X259.755Y-57.035
X259.755Y-59.575
X259.755Y-62.115
X259.755Y-64.655
X259.755Y-67.195
X259.755Y-69.735
X259.755Y-72.275
X259.755Y-87.515
X259.755Y-100.215
X259.755Y-102.755
X259.755Y-105.295
X259.755Y-115.455
X259.755Y-117.995
X262.295Y-24.015
X262.295Y-26.555
X262.295Y-29.095
X262.295Y-31.635
X262.295Y-34.175
X262.295Y-36.715
X262.295Y-39.255
X262.295Y-46.875
X262.295Y-54.495
X262.295Y-57.035
X262.295Y-59.575
X262.295Y-62.115
X262.295Y-64.655
X262.295Y-67.195
X262.295Y-69.735
X262.295Y-72.275
X262.295Y-105.295
X262.295Y-110.375
X262.295Y-117.995
X264.835Y-24.015
X264.835Y-26.555
X264.835Y-29.095
X264.835Y-31.635
X264.835Y-34.175
X264.835Y-46.875
X264.835Y-51.955
X264.835Y-54.495
X264.835Y-57.035
X264.835Y-59.575
X264.835Y-62.115
X264.835Y-64.655
X264.835Y-67.195
X264.835Y-69.735
X264.835Y-72.275
X264.835Y-84.975
X264.835Y-100.215
X264.835Y-102.755
X264.835Y-105.295
X264.835Y-110.375
X264.835Y-112.915
X267.375Y-24.015
X267.375Y-26.555
X267.375Y-29.095
X267.375Y-31.635
X267.375Y-34.175
X267.375Y-39.255
X267.375Y-44.335
X267.375Y-46.875
X267.375Y-51.955
X267.375Y-54.495
X267.375Y-57.035
X267.375Y-59.575
X267.375Y-62.115
X267.375Y-64.655
X267.375Y-67.195
X267.375Y-69.735
X267.375Y-72.275
X267.375Y-74.815
X267.375Y-77.355
X267.375Y-79.895
X267.375Y-82.435
X267.375Y-97.675
X267.375Y-105.295
X267.375Y-110.375
X267.375Y-112.915
X269.915Y-24.015
X269.915Y-26.555
X269.915Y-29.095
X269.915Y-39.255
X269.915Y-51.955
X269.915Y-54.495
X269.915Y-57.035
X269.915Y-59.575
X269.915Y-62.115
X269.915Y-64.655
X269.915Y-67.195
X269.915Y-69.735
X269.915Y-72.275
X269.915Y-74.815
X269.915Y-77.355
X269.915Y-79.895
X269.915Y-82.435
X269.915Y-97.675
X269.915Y-105.295
X269.915Y-107.835
X269.915Y-110.375
X269.915Y-112.915
X269.915Y-115.455
X269.915Y-117.995
X272.455Y-24.015
X272.455Y-26.555
X272.455Y-29.095
X272.455Y-39.255
X272.455Y-51.955
X272.455Y-54.495
X272.455Y-57.035
X272.455Y-59.575
X272.455Y-62.115
X272.455Y-64.655
X272.455Y-67.195
X272.455Y-69.735
X272.455Y-72.275
X272.455Y-74.815
X272.455Y-77.355
X272.455Y-79.895
X272.455Y-82.435
X272.455Y-97.675
X272.455Y-100.215
X272.455Y-102.755
X272.455Y-105.295
X272.455Y-107.835
X272.455Y-110.375
X272.455Y-112.915
X272.455Y-115.455
X272.455Y-117.995
X274.995Y-24.015
X274.995Y-26.555
X274.995Y-29.095
X274.995Y-51.955
X274.995Y-54.495
X274.995Y-57.035
X274.995Y-59.575
X274.995Y-62.115
X274.995Y-64.655
X274.995Y-67.195
X274.995Y-69.735
X274.995Y-74.815
X274.995Y-77.355
X274.995Y-79.895
X274.995Y-97.675
X274.995Y-100.215
X274.995Y-102.755
X274.995Y-105.295
X274.995Y-107.835
X274.995Y-110.375
X274.995Y-112.915
X274.995Y-115.455
X274.995Y-117.995
T2
X183.336Y-101.336
X189.647Y-95.087
X191.25Y-55.25
X195.5Y-96.5
X213.812Y-115.106
X216.852Y-115.086
X250.6Y-112.7
T4
X200.15Y-100.35
X205.15Y-105.35
X259.0Y-112.0
T5
X183.46Y-45.0
X183.46Y-49.5
X183.475Y-27.0
X183.475Y-31.5
X183.475Y-36.0
X183.475Y-40.5
X183.84Y-66.5
X183.84Y-73.0
X183.84Y-79.5
X183.875Y-86.0
X183.96Y-60.0
X186.0Y-45.0
X186.0Y-49.5
X186.015Y-27.0
X186.015Y-31.5
X186.015Y-36.0
X186.015Y-40.5
X186.38Y-66.5
X186.38Y-73.0
X186.38Y-79.5
X186.415Y-86.0
X186.5Y-60.0
X187.0Y-117.5
X188.54Y-45.0
X188.54Y-49.5
X188.555Y-27.0
X188.555Y-31.5
X188.555Y-36.0
X188.555Y-40.5
X188.92Y-66.5
X188.92Y-73.0
X188.92Y-79.5
X188.955Y-86.0
X189.04Y-60.0
X191.46Y-66.5
X191.46Y-73.0
X191.46Y-79.5
X191.495Y-86.0
X191.58Y-60.0
X194.0Y-66.5
X194.0Y-73.0
X194.0Y-79.5
X194.035Y-86.0
X196.54Y-66.5
X196.54Y-73.0
X196.54Y-79.5
X196.575Y-86.0
X198.0Y-117.5
X199.08Y-79.5
X199.115Y-86.0
X201.62Y-79.5
X210.97Y-33.91
X210.97Y-36.45
X210.97Y-38.99
X210.97Y-41.53
X210.97Y-44.07
X210.97Y-46.61
X210.97Y-49.15
X210.97Y-51.69
X210.97Y-54.23
X210.97Y-56.77
X210.97Y-59.31
X210.97Y-61.85
X210.97Y-64.39
X210.97Y-66.93
X210.97Y-69.47
X210.97Y-72.01
X210.97Y-74.55
X210.97Y-77.09
X210.97Y-79.63
X210.97Y-82.17
X210.97Y-84.71
X210.97Y-87.25
X243.0Y-33.891
X243.0Y-36.431
X243.0Y-38.971
X243.0Y-41.511
X243.0Y-44.051
X243.0Y-46.591
X243.0Y-49.131
X243.0Y-51.671
X243.0Y-54.211
X243.0Y-56.751
X243.0Y-59.291
X243.0Y-61.831
X243.0Y-64.371
X243.0Y-66.911
X243.0Y-69.451
X243.0Y-71.991
X243.0Y-74.531
X243.0Y-77.071
X243.0Y-79.611
X243.0Y-82.151
X243.0Y-84.691
X243.0Y-87.231
X273.945Y-30.96
X273.945Y-33.5
X273.945Y-36.04
X273.945Y-43.445
X273.945Y-45.985
X273.945Y-48.525
X274.4Y-72.2
X274.4Y-83.2
T6
X215.57Y-33.885
X215.57Y-36.425
X215.57Y-38.965
X215.57Y-41.505
X215.57Y-44.045
X215.57Y-46.585
X215.57Y-49.125
X215.57Y-51.665
X215.57Y-54.205
X215.57Y-56.745
X215.57Y-59.285
X215.57Y-61.825
X215.57Y-64.365
X215.57Y-66.905
X215.57Y-69.445
X215.57Y-71.985
X215.57Y-74.525
X215.57Y-77.065
X215.57Y-79.605
X215.57Y-82.145
X215.57Y-84.685
X215.57Y-87.225
X238.43Y-33.885
X238.43Y-36.425
X238.43Y-38.965
X238.43Y-41.505
X238.43Y-44.045
X238.43Y-46.585
X238.43Y-49.125
X238.43Y-51.665
X238.43Y-54.205
X238.43Y-56.745
X238.43Y-59.285
X238.43Y-61.825
X238.43Y-64.365
X238.43Y-66.905
X238.43Y-69.445
X238.43Y-71.985
X238.43Y-74.525
X238.43Y-77.065
X238.43Y-79.605
X238.43Y-82.145
X238.43Y-84.685
X238.43Y-87.225
T7
X190.0Y-107.5
X195.0Y-107.5
X264.4Y-75.2
X264.4Y-80.2
T8
X204.0Y-27.0
X229.0Y-106.0
X257.0Y-27.0
T3
X211.012Y-113.556G85X211.012Y-114.256
G05
X211.012Y-117.356G85X211.012Y-118.056
G05
X219.652Y-113.556G85X219.652Y-114.256
G05
X219.652Y-117.356G85X219.652Y-118.056
G05
M30
