G04 #@! TF.GenerationSoftware,KiCad,Pcbnew,8.0.9-8.0.9-0~ubuntu22.04.1*
G04 #@! TF.CreationDate,2025-05-21T15:52:12+02:00*
G04 #@! TF.ProjectId,carrier_board_ESP32,63617272-6965-4725-9f62-6f6172645f45,rev?*
G04 #@! TF.SameCoordinates,Original*
G04 #@! TF.FileFunction,Paste,Top*
G04 #@! TF.FilePolarity,Positive*
%FSLAX46Y46*%
G04 Gerber Fmt 4.6, Leading zero omitted, Abs format (unit mm)*
G04 Created by KiCad (PCBNEW 8.0.9-8.0.9-0~ubuntu22.04.1) date 2025-05-21 15:52:12*
%MOMM*%
%LPD*%
G01*
G04 APERTURE LIST*
G04 Aperture macros list*
%AMRoundRect*
0 Rectangle with rounded corners*
0 $1 Rounding radius*
0 $2 $3 $4 $5 $6 $7 $8 $9 X,Y pos of 4 corners*
0 Add a 4 corners polygon primitive as box body*
4,1,4,$2,$3,$4,$5,$6,$7,$8,$9,$2,$3,0*
0 Add four circle primitives for the rounded corners*
1,1,$1+$1,$2,$3*
1,1,$1+$1,$4,$5*
1,1,$1+$1,$6,$7*
1,1,$1+$1,$8,$9*
0 Add four rect primitives between the rounded corners*
20,1,$1+$1,$2,$3,$4,$5,0*
20,1,$1+$1,$4,$5,$6,$7,0*
20,1,$1+$1,$6,$7,$8,$9,0*
20,1,$1+$1,$8,$9,$2,$3,0*%
G04 Aperture macros list end*
%ADD10C,0.010000*%
%ADD11RoundRect,0.250000X0.350000X0.450000X-0.350000X0.450000X-0.350000X-0.450000X0.350000X-0.450000X0*%
%ADD12RoundRect,0.250000X-2.050000X-0.300000X2.050000X-0.300000X2.050000X0.300000X-2.050000X0.300000X0*%
%ADD13RoundRect,0.250000X-2.025000X-2.375000X2.025000X-2.375000X2.025000X2.375000X-2.025000X2.375000X0*%
%ADD14RoundRect,0.250000X0.475000X-0.337500X0.475000X0.337500X-0.475000X0.337500X-0.475000X-0.337500X0*%
%ADD15RoundRect,0.250000X1.000000X-1.950000X1.000000X1.950000X-1.000000X1.950000X-1.000000X-1.950000X0*%
%ADD16R,0.900000X1.150000*%
%ADD17R,0.800000X1.150000*%
%ADD18R,0.700000X1.150000*%
%ADD19RoundRect,0.250000X0.450000X-0.350000X0.450000X0.350000X-0.450000X0.350000X-0.450000X-0.350000X0*%
%ADD20RoundRect,0.250000X-0.450000X0.350000X-0.450000X-0.350000X0.450000X-0.350000X0.450000X0.350000X0*%
%ADD21RoundRect,0.250000X0.450000X-0.325000X0.450000X0.325000X-0.450000X0.325000X-0.450000X-0.325000X0*%
%ADD22RoundRect,0.250000X-0.350000X-0.450000X0.350000X-0.450000X0.350000X0.450000X-0.350000X0.450000X0*%
%ADD23RoundRect,0.250000X-0.875000X-1.025000X0.875000X-1.025000X0.875000X1.025000X-0.875000X1.025000X0*%
%ADD24RoundRect,0.150000X0.512500X0.150000X-0.512500X0.150000X-0.512500X-0.150000X0.512500X-0.150000X0*%
%ADD25RoundRect,0.250000X0.875000X1.025000X-0.875000X1.025000X-0.875000X-1.025000X0.875000X-1.025000X0*%
%ADD26RoundRect,0.250000X-0.450000X0.325000X-0.450000X-0.325000X0.450000X-0.325000X0.450000X0.325000X0*%
%ADD27RoundRect,0.250000X-0.337500X-0.475000X0.337500X-0.475000X0.337500X0.475000X-0.337500X0.475000X0*%
%ADD28RoundRect,0.250000X0.650000X-1.500000X0.650000X1.500000X-0.650000X1.500000X-0.650000X-1.500000X0*%
%ADD29RoundRect,0.250000X0.337500X0.475000X-0.337500X0.475000X-0.337500X-0.475000X0.337500X-0.475000X0*%
%ADD30R,5.400000X2.900000*%
%ADD31RoundRect,0.250000X1.500000X0.650000X-1.500000X0.650000X-1.500000X-0.650000X1.500000X-0.650000X0*%
%ADD32RoundRect,0.075000X-0.910000X-0.225000X0.910000X-0.225000X0.910000X0.225000X-0.910000X0.225000X0*%
%ADD33RoundRect,0.250001X2.049999X0.799999X-2.049999X0.799999X-2.049999X-0.799999X2.049999X-0.799999X0*%
%ADD34R,5.200000X3.750000*%
G04 APERTURE END LIST*
D10*
X187620000Y-99086924D02*
X186330000Y-99086924D01*
X186330000Y-97446924D01*
X187620000Y-97446924D01*
X187620000Y-99086924D01*
G36*
X187620000Y-99086924D02*
G01*
X186330000Y-99086924D01*
X186330000Y-97446924D01*
X187620000Y-97446924D01*
X187620000Y-99086924D01*
G37*
D11*
X268945000Y-36975000D03*
X270945000Y-36975000D03*
D12*
X263450000Y-94425000D03*
X263450000Y-92725000D03*
D13*
X275025000Y-93800000D03*
X275025000Y-88250000D03*
X270175000Y-93800000D03*
X270175000Y-88250000D03*
D12*
X263450000Y-91025000D03*
X263450000Y-89325000D03*
X263450000Y-87625000D03*
D14*
X241750000Y-114712500D03*
X241750000Y-116787500D03*
X181000000Y-100462500D03*
X181000000Y-102537500D03*
D15*
X240250000Y-99850000D03*
X240250000Y-108250000D03*
D16*
X212581926Y-113900778D03*
D17*
X213811926Y-113900778D03*
D18*
X215831926Y-113900778D03*
D16*
X218081926Y-113900778D03*
D17*
X216851926Y-113900778D03*
D18*
X214831926Y-113900778D03*
D19*
X205831926Y-113605778D03*
X205831926Y-115605778D03*
D20*
X194160962Y-95861924D03*
X194160962Y-93861924D03*
D14*
X244250000Y-114712500D03*
X244250000Y-116787500D03*
D11*
X264945000Y-36975000D03*
X266945000Y-36975000D03*
D21*
X197160962Y-98836924D03*
X197160962Y-100886924D03*
D22*
X218511926Y-111105778D03*
X216511926Y-111105778D03*
D23*
X214031926Y-107105778D03*
X207631926Y-107105778D03*
D14*
X208331926Y-113568278D03*
X208331926Y-115643278D03*
D19*
X269445000Y-46500000D03*
X269445000Y-48500000D03*
D24*
X246862500Y-112700000D03*
X246862500Y-111750000D03*
X246862500Y-110800000D03*
X249137500Y-110800000D03*
X249137500Y-111750000D03*
X249137500Y-112700000D03*
D14*
X246750000Y-114712500D03*
X246750000Y-116787500D03*
D25*
X252800000Y-77800000D03*
X259200000Y-77800000D03*
D14*
X239250000Y-114712500D03*
X239250000Y-116787500D03*
D26*
X197160962Y-96361924D03*
X197160962Y-94311924D03*
D27*
X195637500Y-104050000D03*
X193562500Y-104050000D03*
D19*
X254000000Y-113000000D03*
X254000000Y-115000000D03*
D11*
X212511926Y-111105778D03*
X214511926Y-111105778D03*
D20*
X269445000Y-32975000D03*
X269445000Y-30975000D03*
D19*
X194188360Y-98487258D03*
X194188360Y-100487258D03*
D28*
X257000000Y-112000000D03*
X257000000Y-117000000D03*
D19*
X199315732Y-96411707D03*
X199315732Y-98411707D03*
D14*
X249250000Y-114712500D03*
X249250000Y-116787500D03*
D19*
X251750000Y-114750000D03*
X251750000Y-116750000D03*
D14*
X247250000Y-106462500D03*
X247250000Y-108537500D03*
D11*
X264945000Y-42550000D03*
X266945000Y-42550000D03*
D29*
X257137500Y-82800000D03*
X259212500Y-82800000D03*
D27*
X264037500Y-98250000D03*
X261962500Y-98250000D03*
D29*
X207294426Y-111105778D03*
X209369426Y-111105778D03*
D11*
X268945000Y-42500000D03*
X270945000Y-42500000D03*
D30*
X265750000Y-117350000D03*
X265750000Y-107650000D03*
D19*
X181000000Y-95500000D03*
X181000000Y-97500000D03*
D31*
X252175000Y-88250000D03*
X257175000Y-88250000D03*
D32*
X189450000Y-96361924D03*
X189450000Y-97631924D03*
X189450000Y-98901924D03*
X189450000Y-100171924D03*
X184500000Y-100171924D03*
X184500000Y-98901924D03*
X184500000Y-97631924D03*
X184500000Y-96361924D03*
D23*
X268950000Y-102000000D03*
X262550000Y-102000000D03*
D33*
X226100000Y-115250000D03*
X234900000Y-115250000D03*
D34*
X254175000Y-102300000D03*
X254175000Y-92200000D03*
M02*
