%TF.GenerationSoftware,KiCad,Pcbnew,8.0.9-8.0.9-0~ubuntu22.04.1*%
%TF.CreationDate,2025-05-21T15:54:30+02:00*%
%TF.ProjectId,carrier_board_ESP32,63617272-6965-4725-9f62-6f6172645f45,rev?*%
%TF.SameCoordinates,Original*%
%TF.FileFunction,Drillmap*%
%TF.FilePolarity,Positive*%
%FSLAX45Y45*%
G04 Gerber Fmt 4.5, Leading zero omitted, Abs format (unit mm)*
G04 Created by KiCad (PCBNEW 8.0.9-8.0.9-0~ubuntu22.04.1) date 2025-05-21 15:54:30*
%MOMM*%
%LPD*%
G01*
G04 APERTURE LIST*
%ADD10C,0.050000*%
%ADD11C,0.200000*%
G04 APERTURE END LIST*
D10*
X17850000Y-2150000D02*
X27850000Y-2150000D01*
X27850000Y-12150000D01*
X17850000Y-12150000D01*
X17850000Y-2150000D01*
D11*
X18108277Y-12463984D02*
X18108277Y-12263984D01*
X18108277Y-12263984D02*
X18155896Y-12263984D01*
X18155896Y-12263984D02*
X18184467Y-12273508D01*
X18184467Y-12273508D02*
X18203515Y-12292555D01*
X18203515Y-12292555D02*
X18213039Y-12311603D01*
X18213039Y-12311603D02*
X18222563Y-12349698D01*
X18222563Y-12349698D02*
X18222563Y-12378269D01*
X18222563Y-12378269D02*
X18213039Y-12416365D01*
X18213039Y-12416365D02*
X18203515Y-12435412D01*
X18203515Y-12435412D02*
X18184467Y-12454460D01*
X18184467Y-12454460D02*
X18155896Y-12463984D01*
X18155896Y-12463984D02*
X18108277Y-12463984D01*
X18308277Y-12463984D02*
X18308277Y-12330650D01*
X18308277Y-12368746D02*
X18317801Y-12349698D01*
X18317801Y-12349698D02*
X18327324Y-12340174D01*
X18327324Y-12340174D02*
X18346372Y-12330650D01*
X18346372Y-12330650D02*
X18365420Y-12330650D01*
X18432086Y-12463984D02*
X18432086Y-12330650D01*
X18432086Y-12263984D02*
X18422563Y-12273508D01*
X18422563Y-12273508D02*
X18432086Y-12283031D01*
X18432086Y-12283031D02*
X18441610Y-12273508D01*
X18441610Y-12273508D02*
X18432086Y-12263984D01*
X18432086Y-12263984D02*
X18432086Y-12283031D01*
X18555896Y-12463984D02*
X18536848Y-12454460D01*
X18536848Y-12454460D02*
X18527324Y-12435412D01*
X18527324Y-12435412D02*
X18527324Y-12263984D01*
X18660658Y-12463984D02*
X18641610Y-12454460D01*
X18641610Y-12454460D02*
X18632086Y-12435412D01*
X18632086Y-12435412D02*
X18632086Y-12263984D01*
X18889229Y-12463984D02*
X18889229Y-12263984D01*
X18889229Y-12263984D02*
X18955896Y-12406841D01*
X18955896Y-12406841D02*
X19022563Y-12263984D01*
X19022563Y-12263984D02*
X19022563Y-12463984D01*
X19203515Y-12463984D02*
X19203515Y-12359222D01*
X19203515Y-12359222D02*
X19193991Y-12340174D01*
X19193991Y-12340174D02*
X19174944Y-12330650D01*
X19174944Y-12330650D02*
X19136848Y-12330650D01*
X19136848Y-12330650D02*
X19117801Y-12340174D01*
X19203515Y-12454460D02*
X19184467Y-12463984D01*
X19184467Y-12463984D02*
X19136848Y-12463984D01*
X19136848Y-12463984D02*
X19117801Y-12454460D01*
X19117801Y-12454460D02*
X19108277Y-12435412D01*
X19108277Y-12435412D02*
X19108277Y-12416365D01*
X19108277Y-12416365D02*
X19117801Y-12397317D01*
X19117801Y-12397317D02*
X19136848Y-12387793D01*
X19136848Y-12387793D02*
X19184467Y-12387793D01*
X19184467Y-12387793D02*
X19203515Y-12378269D01*
X19298753Y-12330650D02*
X19298753Y-12530650D01*
X19298753Y-12340174D02*
X19317801Y-12330650D01*
X19317801Y-12330650D02*
X19355896Y-12330650D01*
X19355896Y-12330650D02*
X19374944Y-12340174D01*
X19374944Y-12340174D02*
X19384467Y-12349698D01*
X19384467Y-12349698D02*
X19393991Y-12368746D01*
X19393991Y-12368746D02*
X19393991Y-12425888D01*
X19393991Y-12425888D02*
X19384467Y-12444936D01*
X19384467Y-12444936D02*
X19374944Y-12454460D01*
X19374944Y-12454460D02*
X19355896Y-12463984D01*
X19355896Y-12463984D02*
X19317801Y-12463984D01*
X19317801Y-12463984D02*
X19298753Y-12454460D01*
X19479705Y-12444936D02*
X19489229Y-12454460D01*
X19489229Y-12454460D02*
X19479705Y-12463984D01*
X19479705Y-12463984D02*
X19470182Y-12454460D01*
X19470182Y-12454460D02*
X19479705Y-12444936D01*
X19479705Y-12444936D02*
X19479705Y-12463984D01*
X19479705Y-12340174D02*
X19489229Y-12349698D01*
X19489229Y-12349698D02*
X19479705Y-12359222D01*
X19479705Y-12359222D02*
X19470182Y-12349698D01*
X19470182Y-12349698D02*
X19479705Y-12340174D01*
X19479705Y-12340174D02*
X19479705Y-12359222D01*
M02*
