G04 #@! TF.GenerationSoftware,KiCad,Pcbnew,8.0.9-8.0.9-0~ubuntu22.04.1*
G04 #@! TF.CreationDate,2025-05-21T15:52:13+02:00*
G04 #@! TF.ProjectId,carrier_board_ESP32,63617272-6965-4725-9f62-6f6172645f45,rev?*
G04 #@! TF.SameCoordinates,Original*
G04 #@! TF.FileFunction,Soldermask,Bot*
G04 #@! TF.FilePolarity,Negative*
%FSLAX46Y46*%
G04 Gerber Fmt 4.6, Leading zero omitted, Abs format (unit mm)*
G04 Created by KiCad (PCBNEW 8.0.9-8.0.9-0~ubuntu22.04.1) date 2025-05-21 15:52:13*
%MOMM*%
%LPD*%
G01*
G04 APERTURE LIST*
G04 Aperture macros list*
%AMRoundRect*
0 Rectangle with rounded corners*
0 $1 Rounding radius*
0 $2 $3 $4 $5 $6 $7 $8 $9 X,Y pos of 4 corners*
0 Add a 4 corners polygon primitive as box body*
4,1,4,$2,$3,$4,$5,$6,$7,$8,$9,$2,$3,0*
0 Add four circle primitives for the rounded corners*
1,1,$1+$1,$2,$3*
1,1,$1+$1,$4,$5*
1,1,$1+$1,$6,$7*
1,1,$1+$1,$8,$9*
0 Add four rect primitives between the rounded corners*
20,1,$1+$1,$2,$3,$4,$5,0*
20,1,$1+$1,$4,$5,$6,$7,0*
20,1,$1+$1,$6,$7,$8,$9,0*
20,1,$1+$1,$8,$9,$2,$3,0*%
G04 Aperture macros list end*
%ADD10O,1.700000X1.700000*%
%ADD11R,1.700000X1.700000*%
%ADD12C,5.600000*%
%ADD13O,1.204000X2.204000*%
%ADD14C,1.734000*%
%ADD15RoundRect,0.102000X-0.765000X-0.765000X0.765000X-0.765000X0.765000X0.765000X-0.765000X0.765000X0*%
%ADD16C,3.500000*%
%ADD17RoundRect,0.770000X0.980000X0.980000X-0.980000X0.980000X-0.980000X-0.980000X0.980000X-0.980000X0*%
%ADD18C,1.400000*%
%ADD19RoundRect,0.770000X-0.980000X0.980000X-0.980000X-0.980000X0.980000X-0.980000X0.980000X0.980000X0*%
G04 APERTURE END LIST*
D10*
X188540000Y-49500000D03*
X186000000Y-49500000D03*
D11*
X183460000Y-49500000D03*
D10*
X188555000Y-36000000D03*
X186015000Y-36000000D03*
D11*
X183475000Y-36000000D03*
D12*
X229000000Y-106000000D03*
X257000000Y-27000000D03*
D13*
X219651926Y-117705778D03*
X211011926Y-117705778D03*
X219651926Y-113905778D03*
X211011926Y-113905778D03*
D14*
X238430000Y-87225000D03*
X238430000Y-84685000D03*
X238430000Y-82145000D03*
X238430000Y-79605000D03*
X238430000Y-77065000D03*
X238430000Y-74525000D03*
X238430000Y-71985000D03*
X238430000Y-69445000D03*
X238430000Y-66905000D03*
X238430000Y-64365000D03*
X238430000Y-61825000D03*
X238430000Y-59285000D03*
X238430000Y-56745000D03*
X238430000Y-54205000D03*
X238430000Y-51665000D03*
X238430000Y-49125000D03*
X238430000Y-46585000D03*
X238430000Y-44045000D03*
X238430000Y-41505000D03*
X238430000Y-38965000D03*
X238430000Y-36425000D03*
X238430000Y-33885000D03*
X215570000Y-87225000D03*
X215570000Y-84685000D03*
X215570000Y-82145000D03*
X215570000Y-79605000D03*
X215570000Y-77065000D03*
X215570000Y-74525000D03*
X215570000Y-71985000D03*
X215570000Y-69445000D03*
X215570000Y-66905000D03*
X215570000Y-64365000D03*
X215570000Y-61825000D03*
X215570000Y-59285000D03*
X215570000Y-56745000D03*
X215570000Y-54205000D03*
X215570000Y-51665000D03*
X215570000Y-49125000D03*
X215570000Y-46585000D03*
X215570000Y-44045000D03*
X215570000Y-41505000D03*
X215570000Y-38965000D03*
X215570000Y-36425000D03*
D15*
X215570000Y-33885000D03*
D10*
X196540000Y-73000000D03*
X194000000Y-73000000D03*
X191460000Y-73000000D03*
X188920000Y-73000000D03*
X186380000Y-73000000D03*
D11*
X183840000Y-73000000D03*
D16*
X195000000Y-107500000D03*
D17*
X190000000Y-107500000D03*
D18*
X187000000Y-117500000D03*
X198000000Y-117500000D03*
D10*
X191580000Y-60000000D03*
X189040000Y-60000000D03*
X186500000Y-60000000D03*
D11*
X183960000Y-60000000D03*
D10*
X199115000Y-86000000D03*
X196575000Y-86000000D03*
X194035000Y-86000000D03*
X191495000Y-86000000D03*
X188955000Y-86000000D03*
X186415000Y-86000000D03*
D11*
X183875000Y-86000000D03*
D12*
X204000000Y-27000000D03*
D10*
X201620000Y-79500000D03*
X199080000Y-79500000D03*
X196540000Y-79500000D03*
X194000000Y-79500000D03*
X191460000Y-79500000D03*
X188920000Y-79500000D03*
X186380000Y-79500000D03*
D11*
X183840000Y-79500000D03*
D10*
X196540000Y-66500000D03*
X194000000Y-66500000D03*
X191460000Y-66500000D03*
X188920000Y-66500000D03*
X186380000Y-66500000D03*
D11*
X183840000Y-66500000D03*
D10*
X243000000Y-87231134D03*
X243000000Y-84691134D03*
X243000000Y-82151134D03*
X243000000Y-79611134D03*
X243000000Y-77071134D03*
X243000000Y-74531134D03*
X243000000Y-71991134D03*
X243000000Y-69451134D03*
X243000000Y-66911134D03*
X243000000Y-64371134D03*
X243000000Y-61831134D03*
X243000000Y-59291134D03*
X243000000Y-56751134D03*
X243000000Y-54211134D03*
X243000000Y-51671134D03*
X243000000Y-49131134D03*
X243000000Y-46591134D03*
X243000000Y-44051134D03*
X243000000Y-41511134D03*
X243000000Y-38971134D03*
X243000000Y-36431134D03*
D11*
X243000000Y-33891134D03*
D10*
X188555000Y-27000000D03*
X186015000Y-27000000D03*
D11*
X183475000Y-27000000D03*
D10*
X188555000Y-40500000D03*
X186015000Y-40500000D03*
D11*
X183475000Y-40500000D03*
D10*
X188540000Y-45000000D03*
X186000000Y-45000000D03*
D11*
X183460000Y-45000000D03*
D16*
X264400000Y-75200000D03*
D19*
X264400000Y-80200000D03*
D18*
X274400000Y-83200000D03*
X274400000Y-72200000D03*
D10*
X273945000Y-43445000D03*
X273945000Y-45985000D03*
D11*
X273945000Y-48525000D03*
D10*
X188555000Y-31500000D03*
X186015000Y-31500000D03*
D11*
X183475000Y-31500000D03*
D10*
X210970500Y-87250378D03*
X210970500Y-84710378D03*
X210970500Y-82170378D03*
X210970500Y-79630378D03*
X210970500Y-77090378D03*
X210970500Y-74550378D03*
X210970500Y-72010378D03*
X210970500Y-69470378D03*
X210970500Y-66930378D03*
X210970500Y-64390378D03*
X210970500Y-61850378D03*
X210970500Y-59310378D03*
X210970500Y-56770378D03*
X210970500Y-54230378D03*
X210970500Y-51690378D03*
X210970500Y-49150378D03*
X210970500Y-46610378D03*
X210970500Y-44070378D03*
X210970500Y-41530378D03*
X210970500Y-38990378D03*
X210970500Y-36450378D03*
D11*
X210970500Y-33910378D03*
D10*
X273945000Y-36040000D03*
X273945000Y-33500000D03*
D11*
X273945000Y-30960000D03*
M02*
