G04 #@! TF.GenerationSoftware,KiCad,Pcbnew,8.0.9-8.0.9-0~ubuntu22.04.1*
G04 #@! TF.CreationDate,2025-05-21T15:52:13+02:00*
G04 #@! TF.ProjectId,carrier_board_ESP32,63617272-6965-4725-9f62-6f6172645f45,rev?*
G04 #@! TF.SameCoordinates,Original*
G04 #@! TF.FileFunction,Soldermask,Top*
G04 #@! TF.FilePolarity,Negative*
%FSLAX46Y46*%
G04 Gerber Fmt 4.6, Leading zero omitted, Abs format (unit mm)*
G04 Created by KiCad (PCBNEW 8.0.9-8.0.9-0~ubuntu22.04.1) date 2025-05-21 15:52:13*
%MOMM*%
%LPD*%
G01*
G04 APERTURE LIST*
G04 Aperture macros list*
%AMRoundRect*
0 Rectangle with rounded corners*
0 $1 Rounding radius*
0 $2 $3 $4 $5 $6 $7 $8 $9 X,Y pos of 4 corners*
0 Add a 4 corners polygon primitive as box body*
4,1,4,$2,$3,$4,$5,$6,$7,$8,$9,$2,$3,0*
0 Add four circle primitives for the rounded corners*
1,1,$1+$1,$2,$3*
1,1,$1+$1,$4,$5*
1,1,$1+$1,$6,$7*
1,1,$1+$1,$8,$9*
0 Add four rect primitives between the rounded corners*
20,1,$1+$1,$2,$3,$4,$5,0*
20,1,$1+$1,$4,$5,$6,$7,0*
20,1,$1+$1,$6,$7,$8,$9,0*
20,1,$1+$1,$8,$9,$2,$3,0*%
G04 Aperture macros list end*
%ADD10RoundRect,0.250000X0.350000X0.450000X-0.350000X0.450000X-0.350000X-0.450000X0.350000X-0.450000X0*%
%ADD11O,1.700000X1.700000*%
%ADD12R,1.700000X1.700000*%
%ADD13RoundRect,0.250000X-2.050000X-0.300000X2.050000X-0.300000X2.050000X0.300000X-2.050000X0.300000X0*%
%ADD14RoundRect,0.250002X-4.449998X-5.149998X4.449998X-5.149998X4.449998X5.149998X-4.449998X5.149998X0*%
%ADD15RoundRect,0.250000X0.475000X-0.337500X0.475000X0.337500X-0.475000X0.337500X-0.475000X-0.337500X0*%
%ADD16C,5.600000*%
%ADD17RoundRect,0.250000X1.000000X-1.950000X1.000000X1.950000X-1.000000X1.950000X-1.000000X-1.950000X0*%
%ADD18O,1.204000X2.204000*%
%ADD19RoundRect,0.102000X-0.450000X-0.575000X0.450000X-0.575000X0.450000X0.575000X-0.450000X0.575000X0*%
%ADD20RoundRect,0.102000X-0.400000X-0.575000X0.400000X-0.575000X0.400000X0.575000X-0.400000X0.575000X0*%
%ADD21RoundRect,0.102000X-0.350000X-0.575000X0.350000X-0.575000X0.350000X0.575000X-0.350000X0.575000X0*%
%ADD22RoundRect,0.250000X0.450000X-0.350000X0.450000X0.350000X-0.450000X0.350000X-0.450000X-0.350000X0*%
%ADD23RoundRect,0.250000X-0.450000X0.350000X-0.450000X-0.350000X0.450000X-0.350000X0.450000X0.350000X0*%
%ADD24C,1.734000*%
%ADD25RoundRect,0.102000X-0.765000X-0.765000X0.765000X-0.765000X0.765000X0.765000X-0.765000X0.765000X0*%
%ADD26RoundRect,0.250000X0.450000X-0.325000X0.450000X0.325000X-0.450000X0.325000X-0.450000X-0.325000X0*%
%ADD27RoundRect,0.250000X-0.350000X-0.450000X0.350000X-0.450000X0.350000X0.450000X-0.350000X0.450000X0*%
%ADD28RoundRect,0.250000X-0.875000X-1.025000X0.875000X-1.025000X0.875000X1.025000X-0.875000X1.025000X0*%
%ADD29C,3.500000*%
%ADD30RoundRect,0.770000X0.980000X0.980000X-0.980000X0.980000X-0.980000X-0.980000X0.980000X-0.980000X0*%
%ADD31C,1.400000*%
%ADD32RoundRect,0.150000X0.512500X0.150000X-0.512500X0.150000X-0.512500X-0.150000X0.512500X-0.150000X0*%
%ADD33RoundRect,0.250000X0.875000X1.025000X-0.875000X1.025000X-0.875000X-1.025000X0.875000X-1.025000X0*%
%ADD34RoundRect,0.250000X-0.450000X0.325000X-0.450000X-0.325000X0.450000X-0.325000X0.450000X0.325000X0*%
%ADD35RoundRect,0.250000X-0.337500X-0.475000X0.337500X-0.475000X0.337500X0.475000X-0.337500X0.475000X0*%
%ADD36RoundRect,0.250000X0.650000X-1.500000X0.650000X1.500000X-0.650000X1.500000X-0.650000X-1.500000X0*%
%ADD37RoundRect,0.250000X0.337500X0.475000X-0.337500X0.475000X-0.337500X-0.475000X0.337500X-0.475000X0*%
%ADD38R,5.400000X2.900000*%
%ADD39RoundRect,0.770000X-0.980000X0.980000X-0.980000X-0.980000X0.980000X-0.980000X0.980000X0.980000X0*%
%ADD40RoundRect,0.250000X1.500000X0.650000X-1.500000X0.650000X-1.500000X-0.650000X1.500000X-0.650000X0*%
%ADD41RoundRect,0.102000X-1.206500X-1.651000X1.206500X-1.651000X1.206500X1.651000X-1.206500X1.651000X0*%
%ADD42RoundRect,0.100500X-0.986500X-0.301500X0.986500X-0.301500X0.986500X0.301500X-0.986500X0.301500X0*%
%ADD43RoundRect,0.250001X2.049999X0.799999X-2.049999X0.799999X-2.049999X-0.799999X2.049999X-0.799999X0*%
%ADD44RoundRect,0.102000X-2.600000X1.875000X-2.600000X-1.875000X2.600000X-1.875000X2.600000X1.875000X0*%
G04 APERTURE END LIST*
D10*
X268945000Y-36975000D03*
X270945000Y-36975000D03*
D11*
X188540000Y-49500000D03*
X186000000Y-49500000D03*
D12*
X183460000Y-49500000D03*
D13*
X263450000Y-94425000D03*
X263450000Y-92725000D03*
D14*
X272600000Y-91025000D03*
D13*
X263450000Y-91025000D03*
X263450000Y-89325000D03*
X263450000Y-87625000D03*
D15*
X241750000Y-114712500D03*
X241750000Y-116787500D03*
D11*
X188555000Y-36000000D03*
X186015000Y-36000000D03*
D12*
X183475000Y-36000000D03*
D16*
X229000000Y-106000000D03*
D15*
X181000000Y-100462500D03*
X181000000Y-102537500D03*
D16*
X257000000Y-27000000D03*
D17*
X240250000Y-99850000D03*
X240250000Y-108250000D03*
D18*
X219651926Y-117705778D03*
X211011926Y-117705778D03*
X219651926Y-113905778D03*
X211011926Y-113905778D03*
D19*
X212581926Y-113900778D03*
D20*
X213811926Y-113900778D03*
D21*
X215831926Y-113900778D03*
D19*
X218081926Y-113900778D03*
D20*
X216851926Y-113900778D03*
D21*
X214831926Y-113900778D03*
D22*
X205831926Y-113605778D03*
X205831926Y-115605778D03*
D23*
X194160962Y-95861924D03*
X194160962Y-93861924D03*
D15*
X244250000Y-114712500D03*
X244250000Y-116787500D03*
D24*
X238430000Y-87225000D03*
X238430000Y-84685000D03*
X238430000Y-82145000D03*
X238430000Y-79605000D03*
X238430000Y-77065000D03*
X238430000Y-74525000D03*
X238430000Y-71985000D03*
X238430000Y-69445000D03*
X238430000Y-66905000D03*
X238430000Y-64365000D03*
X238430000Y-61825000D03*
X238430000Y-59285000D03*
X238430000Y-56745000D03*
X238430000Y-54205000D03*
X238430000Y-51665000D03*
X238430000Y-49125000D03*
X238430000Y-46585000D03*
X238430000Y-44045000D03*
X238430000Y-41505000D03*
X238430000Y-38965000D03*
X238430000Y-36425000D03*
X238430000Y-33885000D03*
X215570000Y-87225000D03*
X215570000Y-84685000D03*
X215570000Y-82145000D03*
X215570000Y-79605000D03*
X215570000Y-77065000D03*
X215570000Y-74525000D03*
X215570000Y-71985000D03*
X215570000Y-69445000D03*
X215570000Y-66905000D03*
X215570000Y-64365000D03*
X215570000Y-61825000D03*
X215570000Y-59285000D03*
X215570000Y-56745000D03*
X215570000Y-54205000D03*
X215570000Y-51665000D03*
X215570000Y-49125000D03*
X215570000Y-46585000D03*
X215570000Y-44045000D03*
X215570000Y-41505000D03*
X215570000Y-38965000D03*
X215570000Y-36425000D03*
D25*
X215570000Y-33885000D03*
D10*
X264945000Y-36975000D03*
X266945000Y-36975000D03*
D26*
X197160962Y-98836924D03*
X197160962Y-100886924D03*
D11*
X196540000Y-73000000D03*
X194000000Y-73000000D03*
X191460000Y-73000000D03*
X188920000Y-73000000D03*
X186380000Y-73000000D03*
D12*
X183840000Y-73000000D03*
D27*
X218511926Y-111105778D03*
X216511926Y-111105778D03*
D28*
X214031926Y-107105778D03*
X207631926Y-107105778D03*
D15*
X208331926Y-113568278D03*
X208331926Y-115643278D03*
D29*
X195000000Y-107500000D03*
D30*
X190000000Y-107500000D03*
D31*
X187000000Y-117500000D03*
X198000000Y-117500000D03*
D22*
X269445000Y-46500000D03*
X269445000Y-48500000D03*
D32*
X246862500Y-112700000D03*
X246862500Y-111750000D03*
X246862500Y-110800000D03*
X249137500Y-110800000D03*
X249137500Y-111750000D03*
X249137500Y-112700000D03*
D15*
X246750000Y-114712500D03*
X246750000Y-116787500D03*
D33*
X252800000Y-77800000D03*
X259200000Y-77800000D03*
D15*
X239250000Y-114712500D03*
X239250000Y-116787500D03*
D11*
X191580000Y-60000000D03*
X189040000Y-60000000D03*
X186500000Y-60000000D03*
D12*
X183960000Y-60000000D03*
D34*
X197160962Y-96361924D03*
X197160962Y-94311924D03*
D11*
X199115000Y-86000000D03*
X196575000Y-86000000D03*
X194035000Y-86000000D03*
X191495000Y-86000000D03*
X188955000Y-86000000D03*
X186415000Y-86000000D03*
D12*
X183875000Y-86000000D03*
D16*
X204000000Y-27000000D03*
D35*
X195637500Y-104050000D03*
X193562500Y-104050000D03*
D11*
X201620000Y-79500000D03*
X199080000Y-79500000D03*
X196540000Y-79500000D03*
X194000000Y-79500000D03*
X191460000Y-79500000D03*
X188920000Y-79500000D03*
X186380000Y-79500000D03*
D12*
X183840000Y-79500000D03*
D22*
X254000000Y-113000000D03*
X254000000Y-115000000D03*
D10*
X212511926Y-111105778D03*
X214511926Y-111105778D03*
D23*
X269445000Y-32975000D03*
X269445000Y-30975000D03*
D11*
X196540000Y-66500000D03*
X194000000Y-66500000D03*
X191460000Y-66500000D03*
X188920000Y-66500000D03*
X186380000Y-66500000D03*
D12*
X183840000Y-66500000D03*
D11*
X243000000Y-87231134D03*
X243000000Y-84691134D03*
X243000000Y-82151134D03*
X243000000Y-79611134D03*
X243000000Y-77071134D03*
X243000000Y-74531134D03*
X243000000Y-71991134D03*
X243000000Y-69451134D03*
X243000000Y-66911134D03*
X243000000Y-64371134D03*
X243000000Y-61831134D03*
X243000000Y-59291134D03*
X243000000Y-56751134D03*
X243000000Y-54211134D03*
X243000000Y-51671134D03*
X243000000Y-49131134D03*
X243000000Y-46591134D03*
X243000000Y-44051134D03*
X243000000Y-41511134D03*
X243000000Y-38971134D03*
X243000000Y-36431134D03*
D12*
X243000000Y-33891134D03*
D22*
X194188360Y-98487258D03*
X194188360Y-100487258D03*
D36*
X257000000Y-112000000D03*
X257000000Y-117000000D03*
D22*
X199315732Y-96411707D03*
X199315732Y-98411707D03*
D15*
X249250000Y-114712500D03*
X249250000Y-116787500D03*
D22*
X251750000Y-114750000D03*
X251750000Y-116750000D03*
D15*
X247250000Y-106462500D03*
X247250000Y-108537500D03*
D10*
X264945000Y-42550000D03*
X266945000Y-42550000D03*
D37*
X257137500Y-82800000D03*
X259212500Y-82800000D03*
D35*
X264037500Y-98250000D03*
X261962500Y-98250000D03*
D37*
X207294426Y-111105778D03*
X209369426Y-111105778D03*
D10*
X268945000Y-42500000D03*
X270945000Y-42500000D03*
D11*
X188555000Y-27000000D03*
X186015000Y-27000000D03*
D12*
X183475000Y-27000000D03*
D11*
X188555000Y-40500000D03*
X186015000Y-40500000D03*
D12*
X183475000Y-40500000D03*
D38*
X265750000Y-117350000D03*
X265750000Y-107650000D03*
D11*
X188540000Y-45000000D03*
X186000000Y-45000000D03*
D12*
X183460000Y-45000000D03*
D29*
X264400000Y-75200000D03*
D39*
X264400000Y-80200000D03*
D31*
X274400000Y-83200000D03*
X274400000Y-72200000D03*
D11*
X273945000Y-43445000D03*
X273945000Y-45985000D03*
D12*
X273945000Y-48525000D03*
D22*
X181000000Y-95500000D03*
X181000000Y-97500000D03*
D40*
X252175000Y-88250000D03*
X257175000Y-88250000D03*
D41*
X186975000Y-98266924D03*
D42*
X189450000Y-96361924D03*
X189450000Y-97631924D03*
X189450000Y-98901924D03*
X189450000Y-100171924D03*
X184500000Y-100171924D03*
X184500000Y-98901924D03*
X184500000Y-97631924D03*
X184500000Y-96361924D03*
D11*
X188555000Y-31500000D03*
X186015000Y-31500000D03*
D12*
X183475000Y-31500000D03*
D28*
X268950000Y-102000000D03*
X262550000Y-102000000D03*
D11*
X210970500Y-87250378D03*
X210970500Y-84710378D03*
X210970500Y-82170378D03*
X210970500Y-79630378D03*
X210970500Y-77090378D03*
X210970500Y-74550378D03*
X210970500Y-72010378D03*
X210970500Y-69470378D03*
X210970500Y-66930378D03*
X210970500Y-64390378D03*
X210970500Y-61850378D03*
X210970500Y-59310378D03*
X210970500Y-56770378D03*
X210970500Y-54230378D03*
X210970500Y-51690378D03*
X210970500Y-49150378D03*
X210970500Y-46610378D03*
X210970500Y-44070378D03*
X210970500Y-41530378D03*
X210970500Y-38990378D03*
X210970500Y-36450378D03*
D12*
X210970500Y-33910378D03*
D43*
X226100000Y-115250000D03*
X234900000Y-115250000D03*
D11*
X273945000Y-36040000D03*
X273945000Y-33500000D03*
D12*
X273945000Y-30960000D03*
D44*
X254175000Y-102300000D03*
X254175000Y-92200000D03*
M02*
